<svg width="13" height="13" viewBox="0 0 13 13" fill="none" xmlns="http://www.w3.org/2000/svg">
<path d="M6.66658 12.1667C9.88824 12.1667 12.4999 9.55499 12.4999 6.33333C12.4999 3.11167 9.88824 0.5 6.66658 0.5C3.44492 0.5 0.833252 3.11167 0.833252 6.33333C0.833252 9.55499 3.44492 12.1667 6.66658 12.1667Z" stroke="#FFCA42"/>
<path d="M6.66665 12.6667C5.83495 12.6667 5.01135 12.5029 4.24295 12.1846C3.47455 11.8663 2.77635 11.3998 2.18825 10.8117C1.60015 10.2236 1.13365 9.52539 0.81535 8.75699C0.49705 7.9886 0.333252 7.16504 0.333252 6.33333C0.333252 5.50163 0.49705 4.67807 0.81535 3.90967C1.13365 3.14128 1.60015 2.44309 2.18825 1.85499C2.77635 1.26689 3.47455 0.800375 4.24295 0.482096C5.01135 0.163816 5.83495 -1.09065e-07 6.66665 0V6.33333V12.6667Z" fill="#FFCA42"/>
</svg>
